<svg xmlns="http://www.w3.org/2000/svg" viewBox="0 0 560 350" fill="none">
  <defs>
    <linearGradient id="g1" x1="0%" y1="0%" x2="100%" y2="100%">
      <stop offset="0%" stop-color="#1a1a1a"/>
      <stop offset="100%" stop-color="#222"/>
    </linearGradient>
  </defs>
  <rect width="560" height="350" rx="12" fill="url(#g1)" stroke="#2a2a2a" stroke-width="1"/>

  <!-- Browser frame -->
  <rect x="20" y="16" width="520" height="28" rx="6" fill="#111"/>
  <circle cx="36" cy="30" r="5" fill="#555"/>
  <circle cx="52" cy="30" r="5" fill="#555"/>
  <circle cx="68" cy="30" r="5" fill="#555"/>
  <rect x="120" y="24" width="200" height="12" rx="4" fill="#333"/>

  <!-- Sidebar -->
  <rect x="20" y="58" width="120" height="280" rx="6" fill="#111"/>
  <rect x="32" y="72" width="96" height="10" rx="3" fill="#2a2a2a"/>
  <rect x="32" y="92" width="80" height="10" rx="3" fill="#2a2a2a"/>
  <rect x="32" y="112" width="88" height="10" rx="3" fill="#2a2a2a"/>
  <rect x="32" y="132" width="72" height="10" rx="3" fill="#2a2a2a"/>
  <rect x="32" y="152" width="84" height="10" rx="3" fill="#2a2a2a"/>

  <!-- Main content grid -->
  <rect x="156" y="64" width="190" height="130" rx="8" fill="#1a1a1a" stroke="#2a2a2a" stroke-width="1"/>
  <rect x="156" y="64" width="190" height="12" rx="8" fill="#e50914" opacity="0.8"/>
  <polygon points="210,110 220,140 240,125 255,145 270,120 285,135 330,100" fill="none" stroke="#00d4ff" stroke-width="1.5" stroke-linecap="round" stroke-linejoin="round" opacity="0.6"/>

  <rect x="358" y="64" width="190" height="130" rx="8" fill="#1a1a1a" stroke="#2a2a2a" stroke-width="1"/>
  <rect x="358" y="64" width="190" height="12" rx="8" fill="#e50914" opacity="0.8"/>
  <rect x="380" y="92" width="146" height="8" rx="3" fill="#2a2a2a"/>
  <rect x="380" y="108" width="120" height="8" rx="3" fill="#2a2a2a"/>
  <rect x="380" y="124" width="100" height="8" rx="3" fill="#2a2a2a"/>
  <rect x="380" y="140" width="130" height="8" rx="3" fill="#2a2a2a"/>
  <rect x="380" y="158" width="80" height="8" rx="3" fill="#2a2a2a"/>

  <rect x="156" y="206" width="190" height="130" rx="8" fill="#1a1a1a" stroke="#2a2a2a" stroke-width="1"/>
  <rect x="156" y="206" width="190" height="12" rx="8" fill="#e50914" opacity="0.8"/>
  <circle cx="230" cy="270" r="20" fill="none" stroke="#555" stroke-width="2"/>
  <polygon points="222,262 222,278 236,270" fill="#555"/>

  <rect x="358" y="206" width="190" height="130" rx="8" fill="#1a1a1a" stroke="#2a2a2a" stroke-width="1"/>
  <rect x="358" y="206" width="190" height="12" rx="8" fill="#e50914" opacity="0.8"/>
  <circle cx="440" cy="270" r="20" fill="none" stroke="#555" stroke-width="2"/>
  <path d="M433 262L433 278 443 270 433 262z" fill="#555"/>

  <!-- Glow accent -->
  <rect x="20" y="16" width="520" height="322" rx="12" fill="none" stroke="#00d4ff" stroke-width="0.5" opacity="0.15"/>
</svg>